<?xml version="1.0" standalone="no"?>
<!DOCTYPE svg PUBLIC "-//W3C//DTD SVG 20010904//EN"
 "http://www.w3.org/TR/2001/REC-SVG-20010904/DTD/svg10.dtd">
<svg version="1.0" xmlns="http://www.w3.org/2000/svg"
 width="512.000000pt" height="512.000000pt" viewBox="0 0 512.000000 512.000000"
 preserveAspectRatio="xMidYMid meet">

<g transform="translate(0.000000,512.000000) scale(0.100000,-0.100000)"
fill="#000000" stroke="none">
<path d="M2935 4993 c-169 -35 -322 -155 -393 -305 -25 -54 -30 -58 -73 -67
-197 -43 -370 -197 -423 -377 -24 -82 -28 -87 -72 -97 -77 -16 -186 -79 -254
-147 -311 -311 -177 -827 250 -957 49 -15 143 -17 890 -21 901 -3 965 -1 1098
46 117 41 186 86 282 182 96 96 141 165 181 281 71 199 56 410 -42 599 -75
146 -198 266 -344 335 -101 48 -174 66 -306 72 l-117 6 -6 37 c-11 72 -76 181
-152 257 -82 83 -175 134 -289 158 -86 18 -139 18 -230 -2z m254 -112 c86 -27
140 -61 204 -130 65 -71 101 -142 118 -235 17 -89 29 -97 127 -86 330 37 632
-180 706 -507 77 -340 -138 -686 -480 -773 -74 -19 -114 -20 -938 -20 -936 0
-915 -1 -1028 56 -73 37 -158 126 -196 204 -135 278 23 594 331 663 38 9 71
18 74 20 2 3 13 39 23 80 26 105 62 171 131 239 68 69 153 112 254 131 l70 12
43 88 c67 136 172 227 301 263 71 19 190 17 260 -5z"/>
<path d="M3947 3026 c-72 -26 -116 -66 -171 -155 -29 -47 -110 -184 -181 -304
l-128 -218 -13 36 c-30 87 -108 162 -194 185 -19 5 -292 22 -606 39 -586 30
-617 30 -688 -5 -17 -9 -165 -149 -328 -312 l-297 -296 -43 24 c-31 17 -62 25
-119 28 -131 8 -139 1 -464 -332 -170 -174 -283 -298 -289 -316 -5 -16 -6 -39
-2 -53 3 -14 236 -249 563 -568 703 -686 673 -659 720 -659 37 0 49 11 320
287 319 325 338 351 338 463 0 43 -7 80 -19 108 -19 42 -19 43 0 61 10 9 79
73 152 141 l133 124 82 13 c45 7 327 49 627 93 300 44 563 87 586 95 22 9 54
25 71 38 53 40 634 670 655 711 29 57 35 150 14 214 -35 105 -153 197 -267
209 l-54 5 3 54 c8 124 -73 240 -198 282 -72 25 -147 28 -203 8z m151 -101
c58 -17 106 -53 128 -97 19 -37 20 -114 1 -159 -14 -34 -531 -547 -565 -561
-9 -4 -60 -7 -112 -7 l-95 -1 4 46 c3 38 9 52 38 77 20 17 90 124 165 251 263
446 259 439 332 456 46 11 48 11 104 -5z m355 -371 c42 -21 85 -62 104 -98 20
-39 19 -114 -1 -155 -16 -31 -576 -637 -621 -673 -34 -27 -70 -33 -712 -128
-379 -56 -614 -95 -633 -105 -18 -9 -100 -79 -183 -156 l-150 -140 -166 163
c-91 90 -280 275 -420 412 l-254 248 294 294 c231 231 302 297 332 306 29 9
161 5 615 -19 635 -33 616 -31 669 -100 27 -36 28 -40 27 -157 0 -106 -3 -127
-23 -164 -21 -41 -21 -45 -6 -69 l17 -26 167 5 c137 4 172 8 203 24 20 10 156
135 301 276 146 142 276 262 289 267 37 15 116 12 151 -5z m-3202 -633 c15 -9
223 -207 463 -441 424 -413 436 -425 436 -462 0 -86 -4 -91 -347 -440 l-223
-228 -524 512 -525 511 265 273 c246 252 283 285 339 297 31 7 87 -4 116 -22z"/>
<path d="M1163 1639 c-181 -34 -292 -219 -237 -395 26 -83 115 -172 198 -198
148 -46 304 21 372 161 55 112 29 257 -61 348 -68 67 -179 102 -272 84z m112
-110 c52 -15 119 -82 135 -136 38 -126 -58 -252 -193 -253 -148 0 -244 159
-174 290 26 50 56 75 113 95 48 17 68 18 119 4z"/>
</g>
</svg>
